<svg fill="none" height="87" viewBox="0 0 87 87" width="87" xmlns="http://www.w3.org/2000/svg" xmlns:xlink="http://www.w3.org/1999/xlink"><linearGradient id="a" gradientUnits="userSpaceOnUse" x1=".786864" x2="88.5569" y1="29.5892" y2="31.8943"><stop offset="0" stop-color="#04fee5"/><stop offset="1" stop-color="#0088fe"/></linearGradient><circle cx="43.7203" cy="43.1471" fill="url(#a)" r="42.9335"/><g fill="#fff"><path d="m31.2273 22.2373h24.9901c.0472.0254.0969.0458.1483.0611 2.7505.5236 4.4394 2.5593 4.4449 5.3629v3.7561.456c.4539 0 .8477-.0066 1.2416 0 .7452.0142 1.4183.2694 1.8678.852.3077.3949.4768.8967.7081 1.3505v5.3903c-.0174.0207-.0425.0382-.0502.0622-.4658 1.4836-1.2983 2.0945-2.8541 2.0967h-.9143v.5455 13.6757c0 1.6538-1.091 2.7338-2.7396 2.7338-9.5676 0-19.1352 0-28.7028 0-.2307.0053-.4612-.0148-.6874-.06-1.2678-.288-2.0424-1.3014-2.0446-2.6814 0-4.5586 0-9.1172 0-13.6758v-.5454c-.4429 0-.8466.013-1.2503 0-1.474-.0557-2.5552-1.1597-2.565-2.6292-.0095-1.4967-.0095-2.9934 0-4.4902.0109-1.4956 1.1499-2.6182 2.6523-2.628h1.163v-.4942c0-1.3091-.0065-2.6127 0-3.9196.0131-1.8033.7954-3.2117 2.2301-4.2764.7048-.5193 1.5242-.755 2.3621-.9426zm10.272 9.1321h-11.7678c-.1747 0-.3476.0344-.509.1012-.1613.0668-.308.1648-.4315.2883s-.2214.2701-.2883.4314c-.0668.1613-.1012.3343-.1012.5089v14.0914c-.0001.1748.0342.3478.1011.5093.0668.1615.1649.3082.2885.4317.1237.1236.2705.2215.432.2882.1616.0667.3347.1009.5095.1006 2.7886 0 8.8581-.0185 11.7689-.0229.3524-.0006.6901-.1409.939-.3903.249-.2493.3888-.5872.3888-.9395v-14.0729c-.0011-.3519-.1418-.689-.3911-.9375-.2493-.2484-.5869-.3879-.9389-.3879zm16.2346 0h-11.7831c-.3529.0003-.6912.1406-.9405.3902-.2494.2495-.3895.5879-.3895.9407v14.0728c-.0002.1748.0341.3478.1009.5093.0668.1614.1647.3082.2882.4318s.2702.2216.4316.2885c.1615.0669.3345.1014.5093.1014 2.9185 0 9.0741 0 11.7831-.0099.3523-.0008.6898-.1413.9387-.3905.2489-.2493.3888-.5871.3891-.9393v-14.0674c0-.3524-.1398-.6904-.3887-.9399s-.5867-.3901-.9391-.391zm-3.2535 19.7598c-.6392.0031-1.2514.2585-1.7034.7106-.4519.4521-.7071 1.0644-.7099 1.7036.0024.3203.0679.637.1928.932.1248.2951.3065.5626.5348.7874s.4986.4024.7955.5228c.2969.1203.6146.181.935.1785.6401-.0112 1.2499-.2747 1.6968-.7331.4468-.4584.6945-1.0748.6893-1.7149-.0025-.3166-.0673-.6296-.1908-.9211-.1235-.2916-.3033-.5559-.5291-.7779-.2257-.222-.4931-.3973-.7867-.5159-.2935-.1186-.6076-.1782-.9243-.1753zm-21.5184 0c-.317-.0029-.6315.057-.9252.1764-.2938.1193-.5609.2956-.7862.5188-.2252.2231-.4039.4887-.5259.7813s-.1848.6065-.1848.9235c-.0043.6388.2442 1.2534.6915 1.7096.4472.4562 1.0569.717 1.6957.7253.6466.0032 1.268-.2502 1.7278-.7047s.7205-1.0728.7248-1.7193c-.0028-.64-.2586-1.2529-.7115-1.7051-.4528-.4522-1.0661-.7071-1.7062-.7091zm10.763 1.5502c-1.4947 0-2.9905-.0066-4.4852.0065-.2272-.0019-.4517.0505-.6546.1527-.3273.1811-.4495.5957-.3371.9611.1211.3928.4484.612.9492.6131h9.0097c.647 0 1.0485-.3502 1.0376-.8891-.0109-.5214-.3983-.8422-1.0332-.8443-1.4962-.0044-2.9916-.0055-4.4864-.0033z"/><path d="m38.0516 60.3594c-.0381.5935-.0087 1.1586-.1232 1.6942-.1229.5639-.4351 1.0686-.8846 1.4305-.4496.3618-1.0095.5588-1.5866.5583-1.0911.0152-2.1792.0152-3.2644 0-.6605-.0054-1.2943-.2613-1.7734-.7159-.4792-.4546-.7679-1.074-.808-1.7332-.0273-.4026 0-.8084 0-1.2339z"/><path d="m49.43 60.3638h8.4533c-.048.6099-.0273 1.2-.1538 1.7608-.2466 1.0909-1.2776 1.8938-2.4079 1.9145-1.1304.0208-2.2585.0251-3.3877 0-.6601-.0193-1.2876-.2911-1.7533-.7594-.4656-.4682-.7339-1.0972-.7495-1.7573-.0109-.3786-.0011-.7582-.0011-1.1586z"/></g></svg>